{
  "accessors": [
    {
      "bufferView": 0,
      "componentType": 5125,
      "count": 434352,
      "type": "SCALAR"
    },
    {
      "bufferView": 1,
      "componentType": 5126,
      "count": 93882,
      "max": [
        2.67529678344727,
        0.282584995031357,
        3.47727680206299
      ],
      "min": [
        -2.67529630661011,
        -0.282646626234055,
        -2.4356472492218
      ],
      "type": "VEC3"
    },
    {
      "bufferView": 2,
      "componentType": 5126,
      "count": 93882,
      "type": "VEC3"
    },
    {
      "bufferView": 3,
      "componentType": 5126,
      "count": 93882,
      "type": "VEC4"
    },
    {
      "bufferView": 4,
      "componentType": 5126,
      "count": 93882,
      "type": "VEC2"
    }
  ],
  "asset": {
    "generator": "Adobe Substance 3D Painter 11.1.0",
    "version": "2.0"
  },
  "bufferViews": [
    {
      "buffer": 0,
      "byteLength": 1737408,
      "target": 34963
    },
    {
      "buffer": 0,
      "byteLength": 1126584,
      "byteOffset": 1737408,
      "target": 34962
    },
    {
      "buffer": 0,
      "byteLength": 1126584,
      "byteOffset": 2863992,
      "target": 34962
    },
    {
      "buffer": 0,
      "byteLength": 1502112,
      "byteOffset": 3990576,
      "target": 34962
    },
    {
      "buffer": 0,
      "byteLength": 751056,
      "byteOffset": 5492688,
      "target": 34962
    }
  ],
  "buffers": [
    {
      "byteLength": 6243744,
      "uri": "Charm.bin"
    }
  ],
  "images": [
    {
      "uri": "Smooth Metal.001_baseColor.png"
    },
    {
      "uri": "Smooth Metal.001_occlusionRoughnessMetallic.png"
    },
    {
      "uri": "Smooth Metal.001_normal.png"
    }
  ],
  "materials": [
    {
      "alphaMode": "OPAQUE",
      "name": "Smooth Metal.001",
      "normalTexture": {
        "index": 2
      },
      "occlusionTexture": {
        "index": 1
      },
      "pbrMetallicRoughness": {
        "baseColorTexture": {
          "index": 0
        },
        "metallicRoughnessTexture": {
          "index": 1
        }
      }
    }
  ],
  "meshes": [
    {
      "name": "Necklace_Charm.001",
      "primitives": [
        {
          "attributes": {
            "NORMAL": 2,
            "POSITION": 1,
            "TANGENT": 3,
            "TEXCOORD_0": 4
          },
          "indices": 0,
          "material": 0,
          "mode": 4
        }
      ]
    }
  ],
  "nodes": [
    {
      "children": [
        1
      ],
      "name": "RootNode",
      "scale": [
        0.00999999977648258,
        0.00999999977648258,
        0.00999999977648258
      ]
    },
    {
      "children": [
        2
      ],
      "name": "Necklace_Charm.001",
      "rotation": [
        -1.65005903888783e-15,
        1.0,
        -2.1855694143369e-08,
        -7.54979012640433e-08
      ],
      "scale": [
        100.0,
        100.0,
        100.0
      ],
      "translation": [
        -42.0,
        192.0,
        78.0
      ]
    },
    {
      "mesh": 0,
      "name": "Necklace_Charm.001"
    }
  ],
  "samplers": [
    {
      "magFilter": 9729,
      "minFilter": 9985,
      "wrapS": 10497,
      "wrapT": 10497
    }
  ],
  "scene": 0,
  "scenes": [
    {
      "name": "Scene",
      "nodes": [
        0
      ]
    }
  ],
  "textures": [
    {
      "sampler": 0,
      "source": 0
    },
    {
      "sampler": 0,
      "source": 1
    },
    {
      "sampler": 0,
      "source": 2
    }
  ]
}